<?xml version="1.0" encoding="UTF-8"?><svg id="Layer_2" xmlns="http://www.w3.org/2000/svg" viewBox="0 0 1765.79 482.33"><defs><style>.cls-1,.cls-2{fill:#caf082;}.cls-3{fill:#0a544a;}.cls-2{fill-rule:evenodd;}</style></defs><g id="Layer_1-2"><g><path class="cls-2" d="M330.44,0C200.66,0,95.46,105.2,95.46,234.98c0,50.57,15.97,97.41,43.15,135.74-9.97,27.81-38.01,63.83-130.18,89.16-9.84,8.18-19.18,24.09,22.13,22.31,7.41-.32,16.33-.23,26.36-.13,46.15,.48,115.67,1.21,168.28-36.94,31.66,15.88,67.4,24.83,105.24,24.83h704.93c129.78,0,234.98-105.2,234.98-234.98S1165.14,0,1035.37,0H330.44Z"/><path class="cls-1" d="M1390.56,368.46c-22.43,0-42.29-3.78-59.58-11.35-17.29-7.57-30.67-19.18-40.13-34.86s-14.19-35.4-14.19-59.17c0-21.62,4.73-40.26,14.19-55.93,9.46-15.94,22.56-28.24,39.31-36.88,17.03-8.65,36.75-12.97,59.18-12.97s41.48,3.78,57.96,11.35c16.75,7.57,29.72,18.78,38.91,33.64,9.19,14.59,13.78,32.42,13.78,53.5,0,3.51-.14,6.75-.41,9.73-.27,2.97-.67,6.21-1.21,9.73h-182.39v-32.02h139.43l-13.78,19.86v-15c0-15.4-4.19-26.48-12.57-33.24-8.38-6.75-22.02-10.13-40.94-10.13-20.54,0-34.85,4.05-42.96,12.16-8.11,7.84-12.16,20.4-12.16,37.69v15.4c0,17.29,4.05,29.99,12.16,38.1,8.11,7.84,22.56,11.75,43.37,11.75,17.83,0,30.4-2.3,37.69-6.89,7.3-4.59,10.94-11.21,10.94-19.86v-4.05h60.8v4.46c0,14.59-4.46,27.56-13.38,38.91s-21.48,20.27-37.69,26.75c-15.94,6.21-34.72,9.32-56.34,9.32Z"/><path class="cls-1" d="M1668.85,364.4h-50.26c-23.78,0-42.42-5.81-55.93-17.43-13.51-11.62-20.27-30.26-20.27-55.93V122.03h60.8v162.12c0,10.27,2.16,17.16,6.49,20.67,4.59,3.24,12.16,4.86,22.7,4.86h36.48v54.72Zm0-152.8h-158.47v-50.26h158.47v50.26Z"/><path class="cls-1" d="M1765.79,364.4h-78.22v-70.93h78.22v70.93Z"/><path class="cls-3" d="M346.39,371.8c-23.38,0-41.79-4.97-55.22-14.91-13.17-10.21-21.63-25.26-25.39-45.15h-11.29l4.43-43.53h7.66c0,11.55,2.15,20.96,6.45,28.22,4.57,6.99,11.15,12.09,19.75,15.32,8.87,3.22,19.75,4.84,32.65,4.84s23.92-1.61,32.25-4.84c8.33-3.22,14.51-8.47,18.54-15.72,4.03-7.26,6.05-16.93,6.05-29.02s-2.02-22.44-6.05-29.43c-4.03-7.26-10.21-12.5-18.54-15.72-8.33-3.22-18.94-4.84-31.84-4.84-19.62,0-34.4,3.63-44.34,10.88-9.94,7.26-14.91,19.62-14.91,37.08h-7.66v-45.55h10.88c3.49-16.93,11.56-30.77,24.19-41.52,12.9-10.75,31.31-16.12,55.22-16.12,20.15,0,37.22,4.3,51.19,12.9,13.97,8.6,24.59,20.83,31.84,36.68,7.52,15.59,11.29,34.13,11.29,55.63s-3.76,39.77-11.29,55.63c-7.26,15.59-18.14,27.68-32.65,36.28-14.51,8.6-32.25,12.9-53.21,12.9Zm-84.24-4.03h-56.03V97.71h60.46v205.17l-4.43,5.24v59.66Z"/><path class="cls-3" d="M529.14,367.77h-60.46V97.71h60.46V367.77Z"/><path class="cls-3" d="M764.74,367.77h-56.43v-47.97l-3.22-.81v-70.54c0-13.17-3.36-22.04-10.08-26.6-6.45-4.57-17.73-6.85-33.86-6.85s-26.34,2.28-33.06,6.85c-6.72,4.57-10.08,12.63-10.08,24.19v1.61h-60.87v-1.21c0-16.66,4.44-31.31,13.3-43.94,8.87-12.9,21.36-22.84,37.49-29.83,16.39-7.26,35.61-10.88,57.64-10.88s41.12,3.63,55.62,10.88c14.78,7.26,25.67,17.47,32.65,30.63,7.25,12.9,10.88,28.22,10.88,45.95v118.51Zm-141.88,4.03c-21.77,0-38.83-4.84-51.19-14.51-12.36-9.67-18.54-22.84-18.54-39.5,0-10.21,2.42-18.94,7.25-26.2,4.84-7.26,12.09-13.03,21.77-17.33,9.67-4.57,21.77-7.66,36.28-9.27l90.7-9.27v34.67l-74.17,8.47c-7.26,.54-12.63,2.02-16.13,4.43-3.22,2.15-4.83,5.64-4.83,10.48,0,5.37,2.15,9.27,6.45,11.69,4.3,2.42,10.88,3.63,19.75,3.63,14.51,0,26.47-1.34,35.87-4.03,9.41-2.69,16.53-6.99,21.36-12.9,5.11-6.18,7.66-14.38,7.66-24.59l5.64-.4v34.26h-5.64c-4.57,15.59-13.84,27.95-27.81,37.08-13.71,8.87-31.84,13.3-54.42,13.3Z"/><path class="cls-3" d="M903.01,371.8c-22.84,0-42.86-4.3-60.06-12.9-17.2-8.6-30.5-20.69-39.9-36.28-9.14-15.85-13.71-34.4-13.71-55.63s4.57-40.04,13.71-55.63c9.4-15.85,22.7-28.08,39.9-36.68,17.2-8.6,37.22-12.9,60.06-12.9s40.84,3.63,57.24,10.88c16.39,7.26,29.15,17.47,38.29,30.63,9.14,12.9,13.7,28.08,13.7,45.55v5.64h-60.06v-3.22c0-12.9-4.43-21.9-13.3-27.01-8.87-5.37-21.23-8.06-37.09-8.06-18,0-31.31,3.76-39.9,11.29-8.33,7.52-12.5,20.69-12.5,39.5s4.17,31.31,12.5,39.1c8.6,7.52,21.9,11.29,39.9,11.29,15.86,0,28.22-2.55,37.09-7.66,8.87-5.37,13.3-14.51,13.3-27.41v-3.22h60.06v5.64c0,17.47-4.57,32.78-13.7,45.95-9.14,12.9-21.9,22.98-38.29,30.23-16.39,7.26-35.47,10.88-57.24,10.88Z"/><path class="cls-3" d="M1266.81,367.77h-71.35l-50.38-72.96h-74.17v-54.01h73.76l51.59-74.97h71.75l-73.76,97.55,72.56,104.4Zm-168.09,0h-60.46V97.71h60.46V367.77Z"/></g></g></svg>